<svg width="14" height="14" viewBox="0 0 14 14" fill="none" xmlns="http://www.w3.org/2000/svg">
<g id="Group">
<path id="Vector" fill-rule="evenodd" clip-rule="evenodd" d="M6.22357 10.9612C6.57736 12.3108 7.84716 13.3407 8.48815 13.2985C8.51052 13.297 10.9205 12.8339 12.2396 10.5617C13.2664 8.79372 12.9167 7.08676 11.5203 7.04966C11.0181 7.08727 5.54902 8.3896 6.22357 10.9612ZM7.43643 0.799817C6.52704 0.799817 5.6639 0.995014 4.88312 1.34322C4.74651 1.40047 4.61343 1.46582 4.48459 1.53892C4.39615 1.58619 4.3077 1.63296 4.2223 1.68379L4.24263 1.6904C3.9839 1.86984 3.76125 2.07876 3.57876 2.32072C1.77269 4.71188 7.82581 6.44983 11.0618 6.45593C12.5512 7.52697 12.969 3.43954 11.5142 2.30496C10.3792 1.33092 8.93211 0.796796 7.43643 0.799817Z" fill="#0E3CA5"/>
<path id="Vector_2" fill-rule="evenodd" clip-rule="evenodd" d="M5.16242 2.20193C4.34402 3.40411 1.61737 4.25149 1.16903 4.11933L1.16699 4.11424L1.22291 4.00597C1.69136 3.12697 2.35661 2.36813 3.16674 1.78866C3.33448 1.66819 3.50833 1.55585 3.68777 1.45113C4.0685 1.2351 4.45991 1.22188 4.58852 1.2168C5.8024 1.23916 5.16852 2.19227 5.16191 2.20193" fill="#5493F7"/>
<g id="Group_2">
<mask id="mask0_4324_5329" style="mask-type:alpha" maskUnits="userSpaceOnUse" x="0" y="4" width="5" height="10">
<g id="b">
<path id="Vector_3" d="M0.333008 4.9668H4.49974V13.2997H0.333008V4.9668Z" fill="white"/>
</g>
</mask>
<g mask="url(#mask0_4324_5329)">
<path id="Vector_4" fill-rule="evenodd" clip-rule="evenodd" d="M4.47535 11.211C4.53635 11.606 4.47382 13.1671 4.39147 13.2987C4.32132 13.3028 4.17391 13.3119 3.74844 13.0761C2.92289 12.611 2.20406 11.9779 1.63839 11.2177C1.22458 10.6608 0.900418 10.0427 0.67766 9.38565C0.448351 8.70601 0.331928 7.9934 0.333016 7.27611C0.331747 6.48761 0.472601 5.70533 0.748825 4.9668H0.749842C1.23783 5.60678 1.80207 6.18576 2.28142 6.83235C2.7384 7.44742 3.36669 8.45034 3.49428 8.66485C4.28828 9.99514 4.41486 10.8161 4.47535 11.211Z" fill="#5493F7"/>
</g>
</g>
<path id="Vector_5" fill-rule="evenodd" clip-rule="evenodd" d="M13.6662 7.34959C13.6662 8.20306 13.5036 9.01892 13.2093 9.76717C12.4366 10.6008 7.22528 8.54923 7.17393 8.52686C6.46126 8.21374 4.29174 7.26012 4.09603 5.7626C3.81442 3.60832 8.17177 2.10674 10.0866 2.0498C10.3159 2.05235 11.0148 2.06048 11.422 2.39292C12.128 3.01108 12.6936 3.77318 13.0807 4.62803C13.4678 5.48288 13.6674 6.41067 13.6662 7.34908V7.34959ZM9.10912 12.6783C9.42072 11.5753 12.1453 10.4448 12.7467 10.3838C12.8209 10.3761 12.8524 10.4285 12.8199 10.4885C12.1926 11.6292 11.2639 12.5685 10.14 13.1775C9.5717 13.453 8.94646 13.2522 9.10912 12.6783Z" fill="#5493F7"/>
</g>
</svg>
