<svg xmlns="http://www.w3.org/2000/svg" width="37" height="42" viewBox="0 0 37 42" fill="none">
<path d="M11.6446 39.8962V29L22.3938 40.2618C23.1486 41.0526 24.1941 41.5 25.2873 41.5H33.6284C34.4594 41.5 35.2554 41.1653 35.8368 40.5716C36.4213 39.9746 36.4255 39.0213 35.8464 38.4191L19.1618 21.0714L35.828 3.67573C36.4189 3.05901 36.417 2.08567 35.8237 1.47124C35.2245 0.850555 34.3987 0.5 33.5359 0.5H25.3697C24.2687 0.5 23.2163 0.953869 22.4606 1.75465L11.7136 13.1429L19.1618 21.0714L11.6446 29L4.0584 21.1429L11.6446 13.1429V2.52967C11.6446 1.40871 10.7359 0.5 9.61494 0.5C9.06121 0.5 8.53152 0.726231 8.14865 1.12626L1.99628 7.55425C1.28372 8.29873 0.885986 9.28951 0.885986 10.32V16.2412C0.885986 17.2778 1.28838 18.2739 2.00838 19.0196L4.0584 21.1429L1.44718 23.8473C1.08718 24.2202 0.885986 24.7182 0.885986 25.2365V31.8127C0.885986 32.8492 1.28838 33.8453 2.00838 34.5911L7.73325 40.5204C8.3377 41.1464 9.17058 41.5 10.0408 41.5C10.9266 41.5 11.6446 40.782 11.6446 39.8962Z" fill="url(#paint0_angular_9767_50612)"/>
<defs>
<radialGradient id="paint0_angular_9767_50612" cx="0" cy="0" r="1" gradientUnits="userSpaceOnUse" gradientTransform="translate(18.886 21) rotate(180) scale(17.8784 16.7864)">
<stop stop-color="#B7CFFF"/>
<stop offset="1" stop-color="#0153FE"/>
</radialGradient>
</defs>
</svg>