<svg width="1060" height="290" viewBox="0 0 1060 290" fill="none" xmlns="http://www.w3.org/2000/svg">
<path d="M970.911 18.3008H506.73V214.714H970.911V18.3008Z" stroke="#5E6871" stroke-width="0.5" stroke-miterlimit="10"/>
<path d="M506.73 186.242H970.911" stroke="#5E6871" stroke-width="0.5" stroke-miterlimit="10"/>
<path d="M506.73 158.25H970.911" stroke="#5E6871" stroke-width="0.5" stroke-miterlimit="10"/>
<path d="M506.73 130.262H970.911" stroke="#5E6871" stroke-width="0.5" stroke-miterlimit="10"/>
<path d="M506.73 102.271H970.911" stroke="#5E6871" stroke-width="0.5" stroke-miterlimit="10"/>
<path d="M506.73 74.2812H970.911" stroke="#5E6871" stroke-width="0.5" stroke-miterlimit="10"/>
<path d="M506.73 46.291H970.911" stroke="#5E6871" stroke-width="0.5" stroke-miterlimit="10"/>
<path d="M893.549 18.3008V214.714" stroke="#5E6871" stroke-width="0.5" stroke-miterlimit="10"/>
<path d="M816.186 18.3008V214.714" stroke="#5E6871" stroke-width="0.5" stroke-miterlimit="10"/>
<path d="M738.821 18.3008V214.714" stroke="#5E6871" stroke-width="0.5" stroke-miterlimit="10"/>
<path d="M661.459 18.3008V214.714" stroke="#5E6871" stroke-width="0.5" stroke-miterlimit="10"/>
<path d="M584.096 18.3008V214.714" stroke="#5E6871" stroke-width="0.5" stroke-miterlimit="10"/>
<path d="M309.518 37.7832L51.7881 61.3463V161.52L309.518 137.957V37.7832Z" fill="#182129" stroke="#8D99A3" stroke-width="0.7" stroke-miterlimit="10"/>
<path d="M309.518 24.084L51.7881 47.6471V61.3463L309.518 37.7831V24.084Z" fill="#182129" stroke="#8D99A3" stroke-width="0.7" stroke-miterlimit="10"/>
<path d="M102.528 56.709L51.7881 61.3478V161.521L102.528 156.882V56.709Z" fill="#182129" stroke="#8D99A3" stroke-width="0.7" stroke-miterlimit="10"/>
<path d="M309.518 37.7832L261.28 42.1933V142.367L309.518 137.957V37.7832Z" fill="#182129" stroke="#8D99A3" stroke-width="0.7" stroke-miterlimit="10"/>
<path d="M142.007 53.0977L102.528 56.7077V106.794L142.007 103.185V53.0977Z" fill="#182129" stroke="#8D99A3" stroke-width="0.7" stroke-miterlimit="10"/>
<path d="M142.007 103.186L102.528 106.794V156.881L142.007 153.272V103.186Z" fill="#182129" stroke="#8D99A3" stroke-width="0.7" stroke-miterlimit="10"/>
<path d="M76.0466 92.5916L56.0283 94.4217V89.7156L76.0466 87.8848V92.5916Z" fill="#182129" stroke="#097B74" stroke-width="0.7" stroke-miterlimit="10"/>
<path d="M98.2878 90.5597L78.2695 92.3898V87.6829L98.2878 85.8535V90.5597Z" fill="#182129" stroke="#097B74" stroke-width="0.7" stroke-miterlimit="10"/>
<path d="M98.2885 101.023L56.0283 104.887V99.3688L98.2885 95.5059V101.023Z" fill="#182129" stroke="#097B74" stroke-width="0.7" stroke-miterlimit="10"/>
<path d="M98.2885 109.578L56.0283 113.441V107.924L98.2885 104.061V109.578Z" fill="#182129" stroke="#097B74" stroke-width="0.7" stroke-miterlimit="10"/>
<path d="M98.2885 135.297L56.0283 139.161V133.643L98.2885 129.779V135.297Z" fill="#182129" stroke="#097B74" stroke-width="0.7" stroke-miterlimit="10"/>
<path d="M56.0283 71.5976L98.2885 67.7344" stroke="#8D99A3" stroke-width="0.7" stroke-miterlimit="10"/>
<path d="M56.0283 122.442L98.2885 118.578" stroke="#8D99A3" stroke-width="0.7" stroke-miterlimit="10"/>
<path d="M56.0283 75.2061L98.2885 71.3418" stroke="#8D99A3" stroke-width="0.7" stroke-miterlimit="10"/>
<path d="M56.0283 78.8148L98.2885 74.9512" stroke="#8D99A3" stroke-width="0.7" stroke-miterlimit="10"/>
<path d="M261.28 117.635L142.007 128.54V53.0976L261.28 42.1934V117.635Z" fill="#182129" stroke="#8D99A3" stroke-width="0.7" stroke-miterlimit="10"/>
<path d="M142.007 113.569C149.653 112.87 159.522 125.126 172.729 119.065C182.641 114.515 189.062 102.853 201.643 103.582C214.226 104.31 219.646 118.063 227.361 117.358C235.076 116.652 238.282 109.301 243.486 107.717C248.768 106.111 258.5 117.434 261.28 102.664" fill="#182129"/>
<path d="M142.007 113.569C149.653 112.87 159.522 125.126 172.729 119.065C182.641 114.515 189.062 102.853 201.643 103.582C214.226 104.31 219.646 118.063 227.361 117.358C235.076 116.652 238.282 109.301 243.486 107.717C248.768 106.111 258.5 117.434 261.28 102.664" stroke="#8D99A3" stroke-width="0.7" stroke-miterlimit="10"/>
<path d="M146.039 55.6568L257.179 45.4961V90.5884L146.039 100.75V55.6568Z" fill="#182129" stroke="#8D99A3" stroke-width="0.7" stroke-miterlimit="10"/>
<path d="M146.039 93.2335L257.179 83.0723" stroke="#8D99A3" stroke-width="0.7" stroke-miterlimit="10"/>
<path d="M146.039 85.7172L257.179 75.5566" stroke="#8D99A3" stroke-width="0.7" stroke-miterlimit="10"/>
<path d="M146.039 78.2016L257.179 68.041" stroke="#8D99A3" stroke-width="0.7" stroke-miterlimit="10"/>
<path d="M146.039 70.6872L257.179 60.5254" stroke="#8D99A3" stroke-width="0.7" stroke-miterlimit="10"/>
<path d="M146.039 63.1712L257.179 53.0098" stroke="#8D99A3" stroke-width="0.7" stroke-miterlimit="10"/>
<path d="M238.655 47.1875V92.2804" stroke="#8D99A3" stroke-width="0.7" stroke-miterlimit="10"/>
<path d="M220.132 48.8828V93.9755" stroke="#8D99A3" stroke-width="0.7" stroke-miterlimit="10"/>
<path d="M201.608 50.5762V95.668" stroke="#8D99A3" stroke-width="0.7" stroke-miterlimit="10"/>
<path d="M183.085 52.2695V97.3619" stroke="#8D99A3" stroke-width="0.7" stroke-miterlimit="10"/>
<path d="M164.562 53.9629V99.0551" stroke="#8D99A3" stroke-width="0.7" stroke-miterlimit="10"/>
<path d="M416.217 62.416L158.832 86.1807V186.513L416.217 162.747V62.416Z" fill="#182129" stroke="#8D99A3" stroke-width="0.7" stroke-miterlimit="10"/>
<path d="M416.217 48.6953L158.832 72.4601V86.1809L416.217 62.4158V48.6953Z" fill="#182129" stroke="#8D99A3" stroke-width="0.7" stroke-miterlimit="10"/>
<path d="M202.393 82.1602L158.832 86.1821V186.514L202.393 182.492V82.1602Z" fill="#182129" stroke="#8D99A3" stroke-width="0.7" stroke-miterlimit="10"/>
<path d="M416.218 62.416L361.242 67.4918V167.823L416.218 162.747V62.416Z" fill="#182129" stroke="#8D99A3" stroke-width="0.7" stroke-miterlimit="10"/>
<path d="M355.272 132.425L207.68 146.053V85.4541L355.272 71.8262V132.425Z" fill="#182129" stroke="#8D99A3" stroke-width="0.7" stroke-miterlimit="10"/>
<path d="M281.476 142.098V172.588" stroke="#8D99A3" stroke-width="0.7" stroke-miterlimit="10"/>
<path d="M277.81 148.614L207.68 155.089V148.911L277.81 142.436V148.614Z" fill="#182129" stroke="#8D99A3" stroke-width="0.7" stroke-miterlimit="10"/>
<path d="M277.81 172.735L207.68 179.211V157.663L277.81 151.188V172.735Z" fill="#182129" stroke="#8D99A3" stroke-width="0.7" stroke-miterlimit="10"/>
<path d="M355.272 141.461L285.143 147.937V141.759L355.272 135.283V141.461Z" fill="#182129" stroke="#8D99A3" stroke-width="0.7" stroke-miterlimit="10"/>
<path d="M355.272 165.583L285.143 172.059V150.511L355.272 144.035V165.583Z" fill="#182129" stroke="#8D99A3" stroke-width="0.7" stroke-miterlimit="10"/>
<path d="M163.329 96.4206L197.898 93.2285" stroke="#8D99A3" stroke-width="0.7" stroke-miterlimit="10"/>
<path d="M163.329 102.004L197.898 98.8125" stroke="#8D99A3" stroke-width="0.7" stroke-miterlimit="10"/>
<path d="M163.329 107.586L197.898 104.395" stroke="#8D99A3" stroke-width="0.7" stroke-miterlimit="10"/>
<path d="M163.329 113.167L197.898 109.975" stroke="#8D99A3" stroke-width="0.7" stroke-miterlimit="10"/>
<path d="M163.329 118.748L197.898 115.557" stroke="#8D99A3" stroke-width="0.7" stroke-miterlimit="10"/>
<path d="M163.329 124.332L197.898 121.141" stroke="#8D99A3" stroke-width="0.7" stroke-miterlimit="10"/>
<path d="M163.329 141.762L197.898 138.57" stroke="#8D99A3" stroke-width="0.7" stroke-miterlimit="10"/>
<path d="M163.329 147.344L197.898 144.152" stroke="#8D99A3" stroke-width="0.7" stroke-miterlimit="10"/>
<path d="M163.329 152.926L197.898 149.734" stroke="#8D99A3" stroke-width="0.7" stroke-miterlimit="10"/>
<path d="M163.329 158.509L197.898 155.316" stroke="#8D99A3" stroke-width="0.7" stroke-miterlimit="10"/>
<path d="M163.329 164.09L197.898 160.898" stroke="#8D99A3" stroke-width="0.7" stroke-miterlimit="10"/>
<path d="M163.329 169.673L197.898 166.48" stroke="#8D99A3" stroke-width="0.7" stroke-miterlimit="10"/>
<path d="M163.329 175.253L197.898 172.061" stroke="#8D99A3" stroke-width="0.7" stroke-miterlimit="10"/>
<path d="M368.029 77.5221L383.524 76.0918" stroke="#097B74" stroke-width="0.7" stroke-miterlimit="10"/>
<path d="M368.029 83.1029L383.524 81.6719" stroke="#8D99A3" stroke-width="0.7" stroke-miterlimit="10"/>
<path d="M368.029 88.6842L383.524 87.2539" stroke="#8D99A3" stroke-width="0.7" stroke-miterlimit="10"/>
<path d="M368.029 94.2669L383.524 92.8359" stroke="#8D99A3" stroke-width="0.7" stroke-miterlimit="10"/>
<path d="M368.029 99.8483L383.524 98.418" stroke="#8D99A3" stroke-width="0.7" stroke-miterlimit="10"/>
<path d="M368.029 105.43L383.524 104" stroke="#8D99A3" stroke-width="0.7" stroke-miterlimit="10"/>
<path d="M368.029 111.013L383.524 109.582" stroke="#8D99A3" stroke-width="0.7" stroke-miterlimit="10"/>
<path d="M368.029 122.863L383.524 121.432" stroke="#8D99A3" stroke-width="0.7" stroke-miterlimit="10"/>
<path d="M368.029 128.445L383.524 127.014" stroke="#8D99A3" stroke-width="0.7" stroke-miterlimit="10"/>
<path d="M368.029 134.026L383.524 132.596" stroke="#8D99A3" stroke-width="0.7" stroke-miterlimit="10"/>
<path d="M368.029 139.607L383.524 138.176" stroke="#8D99A3" stroke-width="0.7" stroke-miterlimit="10"/>
<path d="M368.029 145.188L383.524 143.758" stroke="#8D99A3" stroke-width="0.7" stroke-miterlimit="10"/>
<path d="M368.029 150.772L383.524 149.342" stroke="#8D99A3" stroke-width="0.7" stroke-miterlimit="10"/>
<path d="M368.029 156.353L383.524 154.922" stroke="#8D99A3" stroke-width="0.7" stroke-miterlimit="10"/>
<path d="M388.73 75.6089L408.096 73.8203" stroke="#097B74" stroke-width="0.7" stroke-miterlimit="10"/>
<path d="M388.73 81.1922L408.096 79.4043" stroke="#8D99A3" stroke-width="0.7" stroke-miterlimit="10"/>
<path d="M388.73 86.7722L408.096 84.9844" stroke="#8D99A3" stroke-width="0.7" stroke-miterlimit="10"/>
<path d="M388.73 92.355L408.096 90.5664" stroke="#8D99A3" stroke-width="0.7" stroke-miterlimit="10"/>
<path d="M388.73 97.9363L408.096 96.1484" stroke="#8D99A3" stroke-width="0.7" stroke-miterlimit="10"/>
<path d="M388.73 103.519L408.096 101.73" stroke="#8D99A3" stroke-width="0.7" stroke-miterlimit="10"/>
<path d="M388.73 109.1L408.096 107.312" stroke="#8D99A3" stroke-width="0.7" stroke-miterlimit="10"/>
<path d="M388.73 120.951L408.096 119.162" stroke="#8D99A3" stroke-width="0.7" stroke-miterlimit="10"/>
<path d="M388.73 126.532L408.096 124.744" stroke="#8D99A3" stroke-width="0.7" stroke-miterlimit="10"/>
<path d="M388.73 132.114L408.096 130.326" stroke="#8D99A3" stroke-width="0.7" stroke-miterlimit="10"/>
<path d="M388.73 137.697L408.096 135.908" stroke="#8D99A3" stroke-width="0.7" stroke-miterlimit="10"/>
<path d="M388.73 143.278L408.096 141.49" stroke="#8D99A3" stroke-width="0.7" stroke-miterlimit="10"/>
<path d="M388.73 148.86L408.096 147.07" stroke="#8D99A3" stroke-width="0.7" stroke-miterlimit="10"/>
<path d="M388.73 154.442L408.096 152.654" stroke="#8D99A3" stroke-width="0.7" stroke-miterlimit="10"/>
<path d="M213.601 91.0527C220.264 90.4375 228.177 94.2807 231.718 100.385C235.258 106.49 240.248 123.413 252.125 126.799C262.537 129.768 275.448 123.145 281.477 113.421C287.888 103.079 297.938 100.416 305.226 104.317C312.514 108.217 323.459 121.76 333.13 115.889C341.876 110.58 342.605 98.0063 347.707 94.7488" stroke="#8D99A3" stroke-width="0.7" stroke-miterlimit="10"/>
<path d="M213.601 124.735C216.586 124.554 221.167 122.512 224.359 119.358C227.551 116.205 233.78 109.333 242.745 111.416C251.708 113.498 255.369 118.468 261.982 118.457C269.34 118.445 276.003 110.874 286.138 112.991C294.732 114.787 301.538 129.762 311.126 128.878C322.371 127.842 327.369 103.462 348.887 102.143" stroke="#8D99A3" stroke-width="0.7" stroke-miterlimit="10"/>
<path d="M163.329 135.971L197.898 132.779" stroke="#8D99A3" stroke-width="0.7" stroke-miterlimit="10"/>
<path d="M522.935 81.5957L265.712 104.812V205.219L522.935 182.003V81.5957Z" fill="#182129" stroke="#8D99A3" stroke-width="0.7" stroke-miterlimit="10"/>
<path d="M522.935 67.8633L265.713 91.0794V104.811L522.935 81.5946V67.8633Z" fill="#182129" stroke="#8D99A3" stroke-width="0.7" stroke-miterlimit="10"/>
<path d="M274.87 103.984L265.712 104.811V205.218L274.87 204.392V103.984Z" fill="#182129" stroke="#8D99A3" stroke-width="0.7" stroke-miterlimit="10"/>
<path d="M522.935 81.5957L467.993 86.5546V186.962L522.935 182.003V81.5957Z" fill="#182129" stroke="#8D99A3" stroke-width="0.7" stroke-miterlimit="10"/>
<path d="M285.691 196.835L459.044 181.189V94.7988" fill="#182129"/>
<path d="M285.691 196.835L459.044 181.189V94.7988" stroke="#8D99A3" stroke-width="0.7" stroke-miterlimit="10"/>
<path d="M515.858 90.7016L473.959 94.4836V90.5925L515.858 86.8105V90.7016Z" fill="#182129" stroke="#8D99A3" stroke-width="0.7" stroke-miterlimit="10"/>
<path d="M515.858 97.3715L473.959 101.153V97.2617L515.858 93.4805V97.3715Z" fill="#182129" stroke="#8D99A3" stroke-width="0.7" stroke-miterlimit="10"/>
<path d="M515.858 104.041L473.959 107.823V103.932L515.858 100.15V104.041Z" fill="#182129" stroke="#8D99A3" stroke-width="0.7" stroke-miterlimit="10"/>
<path d="M515.858 110.711L473.959 114.493V110.602L515.858 106.82V110.711Z" fill="#182129" stroke="#8D99A3" stroke-width="0.7" stroke-miterlimit="10"/>
<path d="M515.858 117.381L473.959 121.163V117.271L515.858 113.49V117.381Z" fill="#182129" stroke="#8D99A3" stroke-width="0.7" stroke-miterlimit="10"/>
<path d="M515.858 124.051L473.959 127.832V123.942L515.858 120.16V124.051Z" fill="#182129" stroke="#8D99A3" stroke-width="0.7" stroke-miterlimit="10"/>
<path d="M515.858 130.722L473.959 134.504V130.613L515.858 126.832V130.722Z" fill="#182129" stroke="#8D99A3" stroke-width="0.7" stroke-miterlimit="10"/>
<path d="M515.858 177.967L473.959 181.749V137.282L515.858 133.5V177.967Z" fill="#182129" stroke="#8D99A3" stroke-width="0.7" stroke-miterlimit="10"/>
<path d="M288.11 191.215L285.689 191.433V196.836L288.11 196.617V191.215Z" fill="#182129" stroke="#8D99A3" stroke-width="0.7" stroke-miterlimit="10"/>
<path d="M293.394 186.818L290.974 187.037V196.359L293.394 196.14V186.818Z" fill="#182129" stroke="#8D99A3" stroke-width="0.7" stroke-miterlimit="10"/>
<path d="M298.679 182.363L296.256 182.582V195.881L298.679 195.663V182.363Z" fill="#182129" stroke="#8D99A3" stroke-width="0.7" stroke-miterlimit="10"/>
<path d="M303.961 189.189L301.538 189.408V195.405L303.961 195.186V189.189Z" fill="#182129" stroke="#8D99A3" stroke-width="0.7" stroke-miterlimit="10"/>
<path d="M309.244 179.629L306.822 179.848V194.928L309.244 194.71V179.629Z" fill="#182129" stroke="#8D99A3" stroke-width="0.7" stroke-miterlimit="10"/>
<path d="M314.528 184.674L312.106 184.893V194.451L314.528 194.233V184.674Z" fill="#182129" stroke="#8D99A3" stroke-width="0.7" stroke-miterlimit="10"/>
<path d="M319.812 182L317.389 182.218V193.974L319.812 193.756V182Z" fill="#182129" stroke="#8D99A3" stroke-width="0.7" stroke-miterlimit="10"/>
<path d="M325.094 190.578L322.672 190.796V193.498L325.094 193.28V190.578Z" fill="#182129" stroke="#8D99A3" stroke-width="0.7" stroke-miterlimit="10"/>
<path d="M330.376 188.469L327.954 188.687V193.021L330.376 192.803V188.469Z" fill="#182129" stroke="#8D99A3" stroke-width="0.7" stroke-miterlimit="10"/>
<path d="M335.659 182.115L333.237 182.333V192.545L335.659 192.326V182.115Z" fill="#182129" stroke="#8D99A3" stroke-width="0.7" stroke-miterlimit="10"/>
<path d="M340.944 178.549L338.521 178.768V192.067L340.944 191.848V178.549Z" fill="#182129" stroke="#8D99A3" stroke-width="0.7" stroke-miterlimit="10"/>
<path d="M346.226 176.291L343.804 176.509V191.59L346.226 191.371V176.291Z" fill="#182129" stroke="#8D99A3" stroke-width="0.7" stroke-miterlimit="10"/>
<path d="M351.509 183.77L349.088 183.988V191.112L351.509 190.895V183.77Z" fill="#182129" stroke="#8D99A3" stroke-width="0.7" stroke-miterlimit="10"/>
<path d="M356.792 171.537L354.37 171.755V190.636L356.792 190.417V171.537Z" fill="#182129" stroke="#8D99A3" stroke-width="0.7" stroke-miterlimit="10"/>
<path d="M362.075 178.957L359.654 179.175V190.159L362.075 189.94V178.957Z" fill="#182129" stroke="#8D99A3" stroke-width="0.7" stroke-miterlimit="10"/>
<path d="M367.358 183.973L364.938 184.191V189.683L367.358 189.464V183.973Z" fill="#182129" stroke="#8D99A3" stroke-width="0.7" stroke-miterlimit="10"/>
<path d="M372.641 175.689L370.22 175.908V189.207L372.641 188.988V175.689Z" fill="#182129" stroke="#8D99A3" stroke-width="0.7" stroke-miterlimit="10"/>
<path d="M377.924 179.902L375.503 180.121V188.73L377.924 188.512V179.902Z" fill="#182129" stroke="#8D99A3" stroke-width="0.7" stroke-miterlimit="10"/>
<path d="M383.208 184.471L380.787 184.689V188.251L383.208 188.032V184.471Z" fill="#182129" stroke="#8D99A3" stroke-width="0.7" stroke-miterlimit="10"/>
<path d="M388.49 171.23L386.069 171.448V187.775L388.49 187.557V171.23Z" fill="#182129" stroke="#8D99A3" stroke-width="0.7" stroke-miterlimit="10"/>
<path d="M393.773 177.641L391.353 177.86V187.299L393.773 187.08V177.641Z" fill="#182129" stroke="#8D99A3" stroke-width="0.7" stroke-miterlimit="10"/>
<path d="M399.056 173.305L396.635 173.524V186.823L399.056 186.604V173.305Z" fill="#182129" stroke="#8D99A3" stroke-width="0.7" stroke-miterlimit="10"/>
<path d="M404.339 183.129L401.918 183.348V186.346L404.339 186.127V183.129Z" fill="#182129" stroke="#8D99A3" stroke-width="0.7" stroke-miterlimit="10"/>
<path d="M409.623 180.545L407.202 180.763V185.869L409.623 185.65V180.545Z" fill="#182129" stroke="#8D99A3" stroke-width="0.7" stroke-miterlimit="10"/>
<path d="M414.905 176.564L412.484 176.783V185.392L414.905 185.174V176.564Z" fill="#182129" stroke="#8D99A3" stroke-width="0.7" stroke-miterlimit="10"/>
<path d="M420.188 171.396L417.768 171.615V184.915L420.188 184.696V171.396Z" fill="#182129" stroke="#8D99A3" stroke-width="0.7" stroke-miterlimit="10"/>
<path d="M425.472 179.113L423.05 179.332V184.438L425.472 184.219V179.113Z" fill="#182129" stroke="#8D99A3" stroke-width="0.7" stroke-miterlimit="10"/>
<path d="M430.755 167.771L428.333 167.99V183.961L430.755 183.743V167.771Z" fill="#182129" stroke="#8D99A3" stroke-width="0.7" stroke-miterlimit="10"/>
<path d="M436.039 173.053L433.617 173.272V183.484L436.039 183.265V173.053Z" fill="#182129" stroke="#8D99A3" stroke-width="0.7" stroke-miterlimit="10"/>
<path d="M441.322 177.385L438.9 177.604V183.005L441.322 182.788V177.385Z" fill="#182129" stroke="#8D99A3" stroke-width="0.7" stroke-miterlimit="10"/>
<path d="M446.605 169.012L444.183 169.231V182.53L446.605 182.311V169.012Z" fill="#182129" stroke="#8D99A3" stroke-width="0.7" stroke-miterlimit="10"/>
<path d="M451.89 174.711L449.468 174.929V182.054L451.89 181.835V174.711Z" fill="#182129" stroke="#8D99A3" stroke-width="0.7" stroke-miterlimit="10"/>
<path d="M457.171 177.381L454.749 177.6V181.577L457.171 181.359V177.381Z" fill="#182129" stroke="#8D99A3" stroke-width="0.7" stroke-miterlimit="10"/>
<path d="M288.11 119.193L285.689 119.412V124.815L288.11 124.596V119.193Z" fill="#182129" stroke="#8D99A3" stroke-width="0.7" stroke-miterlimit="10"/>
<path d="M293.394 123.301L290.974 123.52V132.841L293.394 132.622V123.301Z" fill="#182129" stroke="#8D99A3" stroke-width="0.7" stroke-miterlimit="10"/>
<path d="M298.679 116.736L296.256 116.955V130.254L298.679 130.036V116.736Z" fill="#182129" stroke="#8D99A3" stroke-width="0.7" stroke-miterlimit="10"/>
<path d="M303.961 126.838L301.538 127.056V133.053L303.961 132.834V126.838Z" fill="#182129" stroke="#8D99A3" stroke-width="0.7" stroke-miterlimit="10"/>
<path d="M309.244 128.49L306.822 128.708V143.789L309.244 143.57V128.49Z" fill="#182129" stroke="#8D99A3" stroke-width="0.7" stroke-miterlimit="10"/>
<path d="M314.528 130.773L312.106 130.992V140.551L314.528 140.332V130.773Z" fill="#182129" stroke="#8D99A3" stroke-width="0.7" stroke-miterlimit="10"/>
<path d="M319.812 119.701L317.389 119.919V131.675L319.812 131.456V119.701Z" fill="#182129" stroke="#8D99A3" stroke-width="0.7" stroke-miterlimit="10"/>
<path d="M325.094 119.09L322.672 119.309V122.01L325.094 121.791V119.09Z" fill="#182129" stroke="#8D99A3" stroke-width="0.7" stroke-miterlimit="10"/>
<path d="M330.376 114.256L327.954 114.475V118.809L330.376 118.59V114.256Z" fill="#182129" stroke="#8D99A3" stroke-width="0.7" stroke-miterlimit="10"/>
<path d="M335.659 106.584L333.237 106.803V117.014L335.659 116.796V106.584Z" fill="#182129" stroke="#8D99A3" stroke-width="0.7" stroke-miterlimit="10"/>
<path d="M340.944 113.711L338.521 113.93V127.229L340.944 127.01V113.711Z" fill="#182129" stroke="#8D99A3" stroke-width="0.7" stroke-miterlimit="10"/>
<path d="M346.226 123.188L343.804 123.406V138.486L346.226 138.267V123.188Z" fill="#182129" stroke="#8D99A3" stroke-width="0.7" stroke-miterlimit="10"/>
<path d="M351.509 133.377L349.088 133.596V140.721L351.509 140.502V133.377Z" fill="#182129" stroke="#8D99A3" stroke-width="0.7" stroke-miterlimit="10"/>
<path d="M356.792 132.777L354.37 132.996V151.876L356.792 151.657V132.777Z" fill="#182129" stroke="#8D99A3" stroke-width="0.7" stroke-miterlimit="10"/>
<path d="M362.075 142.689L359.654 142.908V153.892L362.075 153.673V142.689Z" fill="#182129" stroke="#8D99A3" stroke-width="0.7" stroke-miterlimit="10"/>
<path d="M367.358 139.795L364.938 140.013V145.505L367.358 145.287V139.795Z" fill="#182129" stroke="#8D99A3" stroke-width="0.7" stroke-miterlimit="10"/>
<path d="M372.641 128.438L370.22 128.656V141.955L372.641 141.737V128.438Z" fill="#182129" stroke="#8D99A3" stroke-width="0.7" stroke-miterlimit="10"/>
<path d="M377.924 135.232L375.503 135.451V144.06L377.924 143.841V135.232Z" fill="#182129" stroke="#8D99A3" stroke-width="0.7" stroke-miterlimit="10"/>
<path d="M383.208 141.584L380.787 141.803V145.366L383.208 145.147V141.584Z" fill="#182129" stroke="#8D99A3" stroke-width="0.7" stroke-miterlimit="10"/>
<path d="M388.49 137.635L386.069 137.854V154.181L388.49 153.962V137.635Z" fill="#182129" stroke="#8D99A3" stroke-width="0.7" stroke-miterlimit="10"/>
<path d="M393.773 131.633L391.353 131.852V141.292L393.773 141.073V131.633Z" fill="#182129" stroke="#8D99A3" stroke-width="0.7" stroke-miterlimit="10"/>
<path d="M399.056 136.33L396.635 136.549V149.847L399.056 149.629V136.33Z" fill="#182129" stroke="#8D99A3" stroke-width="0.7" stroke-miterlimit="10"/>
<path d="M404.339 144.367L401.918 144.585V147.583L404.339 147.365V144.367Z" fill="#182129" stroke="#8D99A3" stroke-width="0.7" stroke-miterlimit="10"/>
<path d="M409.623 139.473L407.202 139.692V144.798L409.623 144.579V139.473Z" fill="#182129" stroke="#8D99A3" stroke-width="0.7" stroke-miterlimit="10"/>
<path d="M414.905 142.107L412.484 142.326V150.935L414.905 150.717V142.107Z" fill="#182129" stroke="#8D99A3" stroke-width="0.7" stroke-miterlimit="10"/>
<path d="M420.188 144.451L417.768 144.67V157.969L420.188 157.75V144.451Z" fill="#182129" stroke="#8D99A3" stroke-width="0.7" stroke-miterlimit="10"/>
<path d="M425.472 140.352L423.05 140.57V145.676L425.472 145.458V140.352Z" fill="#182129" stroke="#8D99A3" stroke-width="0.7" stroke-miterlimit="10"/>
<path d="M430.755 129.01L428.333 129.228V145.199L430.755 144.981V129.01Z" fill="#182129" stroke="#8D99A3" stroke-width="0.7" stroke-miterlimit="10"/>
<path d="M436.039 124.205L433.617 124.424V134.636L436.039 134.417V124.205Z" fill="#182129" stroke="#8D99A3" stroke-width="0.7" stroke-miterlimit="10"/>
<path d="M441.322 119.441L438.9 119.66V125.063L441.322 124.844V119.441Z" fill="#182129" stroke="#8D99A3" stroke-width="0.7" stroke-miterlimit="10"/>
<path d="M446.605 105.1L444.183 105.319V118.618L446.605 118.399V105.1Z" fill="#182129" stroke="#8D99A3" stroke-width="0.7" stroke-miterlimit="10"/>
<path d="M451.89 117.723L449.468 117.942V125.066L451.89 124.848V117.723Z" fill="#182129" stroke="#8D99A3" stroke-width="0.7" stroke-miterlimit="10"/>
<path d="M457.171 122.381L454.749 122.6V126.578L457.171 126.359V122.381Z" fill="#182129" stroke="#8D99A3" stroke-width="0.7" stroke-miterlimit="10"/>
<path d="M286.899 119.303V113.768" stroke="#8D99A3" stroke-width="0.7" stroke-miterlimit="10"/>
<path d="M292.184 123.412V121.053" stroke="#8D99A3" stroke-width="0.7" stroke-miterlimit="10"/>
<path d="M286.899 130.242V124.707" stroke="#8D99A3" stroke-width="0.7" stroke-miterlimit="10"/>
<path d="M297.467 116.843V115.311" stroke="#8D99A3" stroke-width="0.7" stroke-miterlimit="10"/>
<path d="M302.749 126.947V121.301" stroke="#8D99A3" stroke-width="0.7" stroke-miterlimit="10"/>
<path d="M308.032 128.522V124.973" stroke="#8D99A3" stroke-width="0.7" stroke-miterlimit="10"/>
<path d="M313.316 130.883V122.518" stroke="#8D99A3" stroke-width="0.7" stroke-miterlimit="10"/>
<path d="M292.184 139.992V132.732" stroke="#8D99A3" stroke-width="0.7" stroke-miterlimit="10"/>
<path d="M297.467 135.129V130.094" stroke="#8D99A3" stroke-width="0.7" stroke-miterlimit="10"/>
<path d="M302.749 136.75V132.936" stroke="#8D99A3" stroke-width="0.7" stroke-miterlimit="10"/>
<path d="M308.032 154.558V143.68" stroke="#8D99A3" stroke-width="0.7" stroke-miterlimit="10"/>
<path d="M313.316 145.688V140.443" stroke="#8D99A3" stroke-width="0.7" stroke-miterlimit="10"/>
<path d="M318.6 119.727V116.939" stroke="#8D99A3" stroke-width="0.7" stroke-miterlimit="10"/>
<path d="M318.6 133.315V131.553" stroke="#8D99A3" stroke-width="0.7" stroke-miterlimit="10"/>
<path d="M323.883 119.154V113.41" stroke="#8D99A3" stroke-width="0.7" stroke-miterlimit="10"/>
<path d="M323.883 124.042V121.896" stroke="#8D99A3" stroke-width="0.7" stroke-miterlimit="10"/>
<path d="M329.166 114.34V112.721" stroke="#8D99A3" stroke-width="0.7" stroke-miterlimit="10"/>
<path d="M329.166 126.117V118.75" stroke="#8D99A3" stroke-width="0.7" stroke-miterlimit="10"/>
<path d="M334.449 106.694V104.855" stroke="#8D99A3" stroke-width="0.7" stroke-miterlimit="10"/>
<path d="M334.449 120.608V116.904" stroke="#8D99A3" stroke-width="0.7" stroke-miterlimit="10"/>
<path d="M339.732 113.821V111.865" stroke="#8D99A3" stroke-width="0.7" stroke-miterlimit="10"/>
<path d="M339.732 128.441V127.074" stroke="#8D99A3" stroke-width="0.7" stroke-miterlimit="10"/>
<path d="M345.015 123.296V119.203" stroke="#8D99A3" stroke-width="0.7" stroke-miterlimit="10"/>
<path d="M345.015 139.299V138.369" stroke="#8D99A3" stroke-width="0.7" stroke-miterlimit="10"/>
<path d="M350.298 133.487V131.262" stroke="#8D99A3" stroke-width="0.7" stroke-miterlimit="10"/>
<path d="M350.298 142.926V140.701" stroke="#8D99A3" stroke-width="0.7" stroke-miterlimit="10"/>
<path d="M355.582 132.782V127.736" stroke="#8D99A3" stroke-width="0.7" stroke-miterlimit="10"/>
<path d="M355.582 159.203V151.766" stroke="#8D99A3" stroke-width="0.7" stroke-miterlimit="10"/>
<path d="M360.864 142.863V140.127" stroke="#8D99A3" stroke-width="0.7" stroke-miterlimit="10"/>
<path d="M360.864 156.524V153.787" stroke="#8D99A3" stroke-width="0.7" stroke-miterlimit="10"/>
<path d="M366.147 139.813V134.842" stroke="#8D99A3" stroke-width="0.7" stroke-miterlimit="10"/>
<path d="M366.147 147.536V145.395" stroke="#8D99A3" stroke-width="0.7" stroke-miterlimit="10"/>
<path d="M371.431 128.489V122.35" stroke="#8D99A3" stroke-width="0.7" stroke-miterlimit="10"/>
<path d="M371.431 143.089V141.85" stroke="#8D99A3" stroke-width="0.7" stroke-miterlimit="10"/>
<path d="M376.714 135.258V134.41" stroke="#8D99A3" stroke-width="0.7" stroke-miterlimit="10"/>
<path d="M376.714 146.273V143.994" stroke="#8D99A3" stroke-width="0.7" stroke-miterlimit="10"/>
<path d="M381.997 141.661V139.418" stroke="#8D99A3" stroke-width="0.7" stroke-miterlimit="10"/>
<path d="M381.997 145.796V145.281" stroke="#8D99A3" stroke-width="0.7" stroke-miterlimit="10"/>
<path d="M387.281 137.774V130" stroke="#8D99A3" stroke-width="0.7" stroke-miterlimit="10"/>
<path d="M387.281 155.652V154.055" stroke="#8D99A3" stroke-width="0.7" stroke-miterlimit="10"/>
<path d="M392.562 131.742V130.812" stroke="#8D99A3" stroke-width="0.7" stroke-miterlimit="10"/>
<path d="M392.562 143.565V141.205" stroke="#8D99A3" stroke-width="0.7" stroke-miterlimit="10"/>
<path d="M397.846 136.389V134.029" stroke="#8D99A3" stroke-width="0.7" stroke-miterlimit="10"/>
<path d="M397.846 154.506V149.738" stroke="#8D99A3" stroke-width="0.7" stroke-miterlimit="10"/>
<path d="M403.128 144.476V143.469" stroke="#8D99A3" stroke-width="0.7" stroke-miterlimit="10"/>
<path d="M403.128 148.403V147.498" stroke="#8D99A3" stroke-width="0.7" stroke-miterlimit="10"/>
<path d="M408.412 139.547V137.646" stroke="#8D99A3" stroke-width="0.7" stroke-miterlimit="10"/>
<path d="M408.412 148.535V144.691" stroke="#8D99A3" stroke-width="0.7" stroke-miterlimit="10"/>
<path d="M413.695 142.2V138.121" stroke="#8D99A3" stroke-width="0.7" stroke-miterlimit="10"/>
<path d="M413.695 152.493V150.887" stroke="#8D99A3" stroke-width="0.7" stroke-miterlimit="10"/>
<path d="M418.979 144.498V143.611" stroke="#8D99A3" stroke-width="0.7" stroke-miterlimit="10"/>
<path d="M418.979 160.99V157.879" stroke="#8D99A3" stroke-width="0.7" stroke-miterlimit="10"/>
<path d="M424.262 140.411V133.338" stroke="#8D99A3" stroke-width="0.7" stroke-miterlimit="10"/>
<path d="M424.262 147.927V145.566" stroke="#8D99A3" stroke-width="0.7" stroke-miterlimit="10"/>
<path d="M429.546 129.063V126.863" stroke="#8D99A3" stroke-width="0.7" stroke-miterlimit="10"/>
<path d="M429.546 151.347V145.064" stroke="#8D99A3" stroke-width="0.7" stroke-miterlimit="10"/>
<path d="M434.827 124.261V117.867" stroke="#8D99A3" stroke-width="0.7" stroke-miterlimit="10"/>
<path d="M434.827 137.391V134.494" stroke="#8D99A3" stroke-width="0.7" stroke-miterlimit="10"/>
<path d="M440.11 119.552V118.785" stroke="#8D99A3" stroke-width="0.7" stroke-miterlimit="10"/>
<path d="M440.11 127.45V124.971" stroke="#8D99A3" stroke-width="0.7" stroke-miterlimit="10"/>
<path d="M445.395 105.196V98.2109" stroke="#8D99A3" stroke-width="0.7" stroke-miterlimit="10"/>
<path d="M445.395 130.411V118.559" stroke="#8D99A3" stroke-width="0.7" stroke-miterlimit="10"/>
<path d="M450.676 117.83V111.215" stroke="#8D99A3" stroke-width="0.7" stroke-miterlimit="10"/>
<path d="M450.676 127.235V125.018" stroke="#8D99A3" stroke-width="0.7" stroke-miterlimit="10"/>
<path d="M455.961 122.467V120.25" stroke="#8D99A3" stroke-width="0.7" stroke-miterlimit="10"/>
<path d="M455.961 127.511V126.471" stroke="#8D99A3" stroke-width="0.7" stroke-miterlimit="10"/>
<path d="M272.787 109.989L267.792 110.44V107.007L272.787 106.557V109.989Z" fill="#182129" stroke="#8D99A3" stroke-width="0.7" stroke-miterlimit="10"/>
<path d="M272.787 115.807L267.792 116.256V112.824L272.787 112.373V115.807Z" fill="#182129" stroke="#8D99A3" stroke-width="0.7" stroke-miterlimit="10"/>
<path d="M272.787 121.622L267.792 122.073V118.641L272.787 118.189V121.622Z" fill="#182129" stroke="#8D99A3" stroke-width="0.7" stroke-miterlimit="10"/>
<path d="M272.787 127.439L267.792 127.89V124.457L272.787 124.006V127.439Z" fill="#182129" stroke="#8D99A3" stroke-width="0.7" stroke-miterlimit="10"/>
<path d="M272.787 133.255L267.792 133.706V130.273L272.787 129.822V133.255Z" fill="#182129" stroke="#8D99A3" stroke-width="0.7" stroke-miterlimit="10"/>
<path d="M272.787 139.071L267.792 139.522V136.089L272.787 135.639V139.071Z" fill="#182129" stroke="#8D99A3" stroke-width="0.7" stroke-miterlimit="10"/>
<path d="M272.787 144.888L267.792 145.338V141.906L272.787 141.455V144.888Z" fill="#182129" stroke="#8D99A3" stroke-width="0.7" stroke-miterlimit="10"/>
<path d="M272.787 150.704L267.792 151.154V147.722L272.787 147.271V150.704Z" fill="#182129" stroke="#8D99A3" stroke-width="0.7" stroke-miterlimit="10"/>
<path d="M870.227 49.5179H691.124C689.247 49.5179 687.727 48.5464 687.727 47.3468V46.5714C687.727 45.3727 689.247 44.4004 691.124 44.4004H870.228C872.105 44.4004 873.628 45.372 873.628 46.5714V47.3468C873.627 48.5464 872.104 49.5179 870.227 49.5179Z" fill="#182129" stroke="#8D99A3" stroke-width="0.7" stroke-miterlimit="10"/>
<path d="M870.228 32.8304H691.125C689.248 32.8304 687.728 31.8588 687.728 30.6593V29.8839C687.728 28.6851 689.248 27.7129 691.125 27.7129H870.229C872.106 27.7129 873.627 28.6844 873.627 29.8839V30.6593C873.626 31.8581 872.105 32.8304 870.228 32.8304Z" fill="#182129" stroke="#8D99A3" stroke-width="0.7" stroke-miterlimit="10"/>
<path d="M870.227 66.2034H691.124C689.247 66.2034 687.727 65.2319 687.727 64.0324V63.257C687.727 62.0582 689.247 61.0859 691.124 61.0859H870.228C872.105 61.0859 873.628 62.0574 873.628 63.257V64.0324C873.627 65.2319 872.104 66.2034 870.227 66.2034Z" fill="#182129" stroke="#8D99A3" stroke-width="0.7" stroke-miterlimit="10"/>
<path d="M264.935 176.775L266.028 90.9391L416.217 77.4689V59.3945L232.835 76.487L233.458 179.766L264.935 176.775Z" fill="url(#paint0_radial_3411_261519)"/>
<path d="M158.832 151.734L158.773 72.4621L309.518 58.5483V40.8652L125.58 58.0094L126.982 154.602L158.832 151.734Z" fill="url(#paint1_radial_3411_261519)"/>
<path d="M279.775 127.642C264.949 128.973 255.772 163.378 253.964 169.891C253.242 172.479 252.358 173.352 251.196 173.455C250.213 173.544 249.032 173.081 247.584 172.642C246.136 172.199 244.415 171.786 242.36 171.971C241.878 172.014 241.377 172.09 240.857 172.207C228.043 175.074 234.766 227.094 221.65 232.831C220.622 233.281 219.713 233.527 218.9 233.6C214.498 233.995 212.957 229.309 210.647 224.693C208.337 220.078 205.261 215.532 197.79 216.203C196.544 216.315 195.176 216.572 193.667 216.999C177.154 221.685 178.163 252.749 178.129 264.374L732.976 214.56C728.557 206.886 722.201 204.42 715.928 204.984C711.929 205.343 707.962 206.933 704.555 209.191C702.173 210.769 699.325 211.613 696.275 211.887C688.12 212.619 678.521 209.274 672.541 205.003C670.345 203.429 668.589 202.881 667.029 203.021C662.317 203.444 659.399 210.15 651.559 213.84C651.059 214.075 650.537 214.211 649.995 214.261C639.973 215.16 623.043 185.789 610.029 183.037C607.825 182.573 605.75 182.459 603.783 182.636C590.367 183.84 582.054 198.516 573.99 206.99C572.367 208.695 570.546 209.57 568.552 209.748C559.188 210.589 546.038 196.066 532.041 180.163C526.79 174.196 521.161 171.899 515.795 172.38C503.929 173.445 493.363 188.107 491.097 206.706C490.057 215.231 485.671 218.566 481.469 218.943C477.405 219.308 473.513 216.902 472.998 213.748C472.184 208.777 467.19 203.295 462.313 203.732C459.672 203.969 457.066 205.943 455.179 210.674C452.42 217.592 445.958 221.537 439.542 222.113C433.462 222.659 427.421 220.179 424.607 214.335C419.979 204.734 411.115 196.578 400.475 197.534C397.798 197.774 395.007 198.592 392.142 200.11C389.146 201.696 385.743 202.586 382.106 202.912C363.102 204.618 337.78 190.923 331.549 180.699C325.968 171.541 316.038 175.707 307.797 174.398C299.556 173.09 300.516 134.656 284.642 128.392C282.959 127.727 281.336 127.501 279.775 127.642Z" fill="url(#paint2_linear_3411_261519)" stroke="white" stroke-opacity="0.1" stroke-width="0.9" stroke-miterlimit="10"/>
<path d="M605.588 182.376V96.7285" stroke="#8D99A3" stroke-width="0.7" stroke-miterlimit="10" stroke-dasharray="3.54 3.54"/>
<path d="M437.842 221.706V112.332" stroke="#8D99A3" stroke-width="0.7" stroke-miterlimit="10" stroke-dasharray="3.54 3.54"/>
<path d="M196.192 215.613V133.008" stroke="#8D99A3" stroke-width="0.7" stroke-miterlimit="10" stroke-dasharray="3.54 3.54"/>
<path d="M196.194 218.676C197.906 218.676 199.294 217.788 199.294 216.694C199.294 215.6 197.906 214.713 196.194 214.713C194.48 214.713 193.092 215.6 193.092 216.694C193.092 217.788 194.48 218.676 196.194 218.676Z" fill="#2F4050"/>
<path d="M437.841 223.686C439.554 223.686 440.943 222.799 440.943 221.704C440.943 220.61 439.554 219.723 437.841 219.723C436.128 219.723 434.739 220.61 434.739 221.704C434.739 222.799 436.128 223.686 437.841 223.686Z" fill="#2F4050"/>
<path d="M605.587 184.529C607.3 184.529 608.689 183.642 608.689 182.548C608.689 181.453 607.3 180.566 605.587 180.566C603.875 180.566 602.486 181.453 602.486 182.548C602.486 183.642 603.875 184.529 605.587 184.529Z" fill="#2F4050"/>
<path d="M459.989 104.173L412.342 108.45C408.804 108.767 405.931 111.002 405.925 113.441C405.918 115.887 408.779 117.607 412.316 117.289L459.964 113.011C463.501 112.694 466.383 110.458 466.392 108.012C466.399 105.574 463.526 103.855 459.989 104.173Z" fill="url(#paint3_linear_3411_261519)" stroke="#8D99A3" stroke-width="0.7" stroke-miterlimit="10"/>
<path d="M629.42 85.8329L581.783 90.1097C578.236 90.4285 575.362 92.6697 575.355 95.1086C575.348 97.5476 578.208 99.2679 581.757 98.949L629.395 94.6722C632.943 94.3534 635.815 92.1192 635.823 89.6796C635.831 87.2406 632.967 85.514 629.42 85.8329Z" fill="url(#paint4_linear_3411_261519)" stroke="#8D99A3" stroke-width="0.7" stroke-miterlimit="10"/>
<path d="M220.032 120.491L172.385 124.768C168.837 125.087 165.965 127.321 165.957 129.76C165.95 132.199 168.811 133.926 172.359 133.607L220.007 129.33C223.544 129.012 226.417 126.77 226.424 124.331C226.431 121.892 223.569 120.173 220.032 120.491Z" fill="url(#paint5_linear_3411_261519)" stroke="#8D99A3" stroke-width="0.7" stroke-miterlimit="10"/>
<path d="M320.195 167.502C319.801 167.425 319.516 167.192 319.517 166.878C319.519 166.473 319.997 166.102 320.584 166.049C321.171 165.995 321.647 166.282 321.646 166.687C321.645 167.001 321.36 167.285 320.965 167.433L320.961 168.858L320.191 168.927L320.195 167.502ZM326.195 163.289L314.987 164.296L314.976 168.167C314.969 170.095 317.226 171.451 320.022 171.199L321.116 171.101C323.903 170.852 326.177 169.089 326.183 167.16L326.195 163.289Z" fill="#182129" stroke="#8D99A3" stroke-width="0.7" stroke-miterlimit="10" stroke-linejoin="round"/>
<path d="M320.604 159.161C318.333 159.365 316.495 160.793 316.491 162.36L316.485 164.162L324.694 163.425L324.7 161.622C324.704 160.056 322.874 158.957 320.604 159.161Z" fill="#182129" stroke="#8D99A3" stroke-width="0.7" stroke-miterlimit="10" stroke-linejoin="round"/>
<path d="M822.147 112.938C805.873 114.399 801.647 150.441 784.375 151.991C782.709 152.14 780.923 151.97 778.992 151.416C777.723 151.052 776.508 150.937 775.341 151.042C766.538 151.832 760.483 165.134 754.347 178.443C748.205 191.749 741.963 205.065 732.791 205.889C730.832 206.066 728.738 205.671 726.483 204.584C714.184 198.66 701.886 171.751 687.593 173.03C684.766 173.283 681.864 174.639 678.864 177.48C669.527 186.317 661.264 228.891 651.359 234.859C649.486 235.986 647.882 236.548 646.479 236.674C640.459 237.215 638.112 229.737 633.739 224.596C628.264 218.155 623.245 215.191 618.323 215.632C612.653 216.14 607.112 221.167 601.143 230.603C596.333 238.209 591.495 241.422 586.417 241.878C576.694 242.751 566.087 233.521 553.071 225.686C550.655 224.232 548.533 223.697 546.641 223.868C540.431 224.424 536.71 232.573 533.255 240.702C529.806 248.824 526.618 256.923 521.47 257.385C520.595 257.464 519.664 257.322 518.665 256.922C516.3 255.976 514.099 255.586 512.053 255.769C506.225 256.293 501.635 261.467 497.958 271.701L1007.4 225.938C1007.4 225.938 1007.33 201.029 1007.52 185.323C1007.63 175.981 1001.92 170.809 995.183 171.413C990.592 171.825 985.526 174.918 981.501 181.203C975.248 190.952 967.894 206.71 953.48 208.003C949.143 208.393 944.17 207.474 938.391 204.687C925.135 198.298 911.487 143.091 887.343 167.262C864.822 189.809 843.235 112.824 822.147 112.938Z" fill="url(#paint6_linear_3411_261519)" stroke="white" stroke-opacity="0.1" stroke-width="0.9" stroke-miterlimit="10"/>
<path d="M952.495 210.798C954.209 210.798 955.597 209.911 955.597 208.817C955.597 207.723 954.209 206.836 952.495 206.836C950.782 206.836 949.394 207.723 949.394 208.817C949.394 209.911 950.782 210.798 952.495 210.798Z" fill="#2F4050"/>
<path d="M546.967 225.937C548.679 225.937 550.069 225.051 550.069 223.956C550.069 222.862 548.679 221.975 546.967 221.975C545.254 221.975 543.865 222.862 543.865 223.956C543.865 225.051 545.254 225.937 546.967 225.937Z" fill="#8D99A3"/>
<path d="M546.966 229.206C551.506 229.206 555.186 226.855 555.186 223.955C555.186 221.056 551.506 218.705 546.966 218.705C542.426 218.705 538.747 221.056 538.747 223.955C538.747 226.855 542.426 229.206 546.966 229.206Z" stroke="#8D99A3" stroke-width="0.7" stroke-miterlimit="10"/>
<path d="M546.965 232.58C554.421 232.58 560.465 228.719 560.465 223.956C560.465 219.193 554.421 215.332 546.965 215.332C539.51 215.332 533.465 219.193 533.465 223.956C533.465 228.719 539.51 232.58 546.965 232.58Z" stroke="#8D99A3" stroke-width="0.7" stroke-miterlimit="10"/>
<path d="M822.133 115.105C823.846 115.105 825.235 114.219 825.235 113.124C825.235 112.03 823.846 111.143 822.133 111.143C820.421 111.143 819.031 112.03 819.031 113.124C819.031 114.219 820.421 115.105 822.133 115.105Z" fill="#8D99A3"/>
<path d="M822.133 118.073C826.672 118.073 830.352 115.723 830.352 112.823C830.352 109.923 826.672 107.572 822.133 107.572C817.593 107.572 813.913 109.923 813.913 112.823C813.913 115.723 817.593 118.073 822.133 118.073Z" stroke="#8D99A3" stroke-width="0.7" stroke-miterlimit="10"/>
<path d="M822.133 121.448C829.588 121.448 835.633 117.586 835.633 112.823C835.633 108.061 829.588 104.199 822.133 104.199C814.677 104.199 808.633 108.061 808.633 112.823C808.633 117.586 814.677 121.448 822.133 121.448Z" stroke="#8D99A3" stroke-width="0.7" stroke-miterlimit="10"/>
<path d="M822.132 126.302C833.785 126.302 843.233 120.268 843.233 112.823C843.233 105.379 833.785 99.3438 822.132 99.3438C810.478 99.3438 801.031 105.379 801.031 112.823C801.031 120.268 810.478 126.302 822.132 126.302Z" stroke="#8D99A3" stroke-width="0.7" stroke-miterlimit="10"/>
<path d="M686.896 166.06C686.502 165.984 686.218 165.751 686.219 165.437C686.22 165.032 686.698 164.66 687.285 164.608C687.873 164.555 688.349 164.841 688.348 165.245C688.346 165.56 688.061 165.844 687.667 165.991L687.662 167.417L686.892 167.486L686.896 166.06ZM692.896 161.848L681.688 162.854L681.677 166.725C681.671 168.654 683.927 170.008 686.723 169.758L687.817 169.659C690.604 169.409 692.878 167.647 692.884 165.718L692.896 161.848Z" fill="#182129" stroke="#8D99A3" stroke-width="0.7" stroke-miterlimit="10" stroke-linejoin="round"/>
<path d="M687.307 157.718C685.037 157.921 683.199 159.351 683.195 160.916L683.189 162.719L691.397 161.982L691.403 160.179C691.407 158.613 689.577 157.514 687.307 157.718Z" fill="#182129" stroke="#8D99A3" stroke-width="0.7" stroke-miterlimit="10" stroke-linejoin="round"/>
<path d="M828.982 32.8302C831.172 32.8302 832.947 31.6965 832.947 30.2979C832.947 28.8994 831.172 27.7656 828.982 27.7656C826.793 27.7656 825.018 28.8994 825.018 30.2979C825.018 31.6965 826.793 32.8302 828.982 32.8302Z" fill="url(#paint7_linear_3411_261519)" stroke="#8D99A3" stroke-width="0.5"/>
<path d="M750.301 49.4631C752.491 49.4631 754.265 48.3293 754.265 46.9308C754.265 45.5323 752.491 44.3984 750.301 44.3984C748.112 44.3984 746.337 45.5323 746.337 46.9308C746.337 48.3293 748.112 49.4631 750.301 49.4631Z" fill="url(#paint8_linear_3411_261519)" stroke="#8D99A3" stroke-width="0.5"/>
<path d="M768.55 66.1506C770.74 66.1506 772.515 65.0168 772.515 63.6182C772.515 62.2197 770.74 61.0859 768.55 61.0859C766.361 61.0859 764.586 62.2197 764.586 63.6182C764.586 65.0168 766.361 66.1506 768.55 66.1506Z" fill="url(#paint9_linear_3411_261519)" stroke="#8D99A3" stroke-width="0.5"/>
<path d="M188.651 129.686L188.657 128.111L190.56 127.94C190.792 127.918 190.997 127.933 191.175 127.992C191.353 128.047 191.49 128.129 191.591 128.243C191.687 128.356 191.734 128.489 191.733 128.646C191.733 128.801 191.678 128.943 191.568 129.066C191.458 129.189 191.308 129.292 191.116 129.371C190.924 129.45 190.705 129.502 190.459 129.525L188.651 129.686ZM188.658 127.582L188.661 126.217L190.387 126.062C190.701 126.035 190.948 126.074 191.139 126.179C191.33 126.285 191.426 126.437 191.425 126.635C191.425 126.771 191.383 126.898 191.287 127.015C191.191 127.127 191.068 127.219 190.91 127.29C190.752 127.361 190.581 127.409 190.382 127.426L188.658 127.582ZM190.401 125.532L187.841 125.763L187.828 130.293L190.614 130.043C191.018 130.007 191.36 129.924 191.655 129.789C191.949 129.654 192.176 129.483 192.335 129.28C192.492 129.073 192.568 128.834 192.569 128.571C192.569 128.283 192.454 128.048 192.222 127.861C192.045 127.719 191.815 127.621 191.528 127.562C191.711 127.473 191.864 127.362 191.984 127.226C192.169 127.024 192.26 126.805 192.26 126.559C192.261 126.347 192.193 126.16 192.043 125.99C191.893 125.824 191.681 125.696 191.408 125.608C191.127 125.525 190.792 125.498 190.401 125.532Z" fill="#8D99A3"/>
<path d="M198.67 124.789L197.849 124.863L197.842 127.695C197.839 127.907 197.791 128.095 197.689 128.266C197.586 128.435 197.441 128.58 197.27 128.699C197.099 128.819 196.907 128.911 196.701 128.982C196.49 129.053 196.277 129.1 196.071 129.119C195.859 129.138 195.653 129.128 195.448 129.099C195.236 129.066 195.045 129.003 194.874 128.915C194.702 128.826 194.559 128.707 194.458 128.556C194.355 128.408 194.301 128.225 194.301 128.013L194.309 125.18L193.488 125.259L193.48 128.134C193.479 128.488 193.588 128.785 193.807 129.025C194.033 129.264 194.332 129.44 194.722 129.552C195.112 129.663 195.558 129.693 196.071 129.647C196.576 129.602 197.021 129.491 197.412 129.309C197.803 129.128 198.112 128.897 198.331 128.617C198.551 128.334 198.663 128.017 198.663 127.668L198.67 124.789Z" fill="#8D99A3"/>
<path d="M204.558 124.262L203.613 124.347L201.93 126.503L200.26 124.647L199.314 124.733L201.518 127.182L201.512 129.065L202.335 128.991L202.339 127.108L204.558 124.262Z" fill="#8D99A3"/>
<path d="M598.047 94.8992L598.051 93.3232L599.955 93.1529C600.188 93.131 600.393 93.1458 600.57 93.2049C600.749 93.2598 600.885 93.3415 600.987 93.4555C601.082 93.5696 601.13 93.7019 601.129 93.8582C601.129 94.0137 601.074 94.1559 600.963 94.2784C600.853 94.4016 600.703 94.505 600.512 94.5832C600.319 94.6627 600.101 94.7148 599.855 94.7373L598.047 94.8992ZM598.052 92.7946L598.057 91.4298L599.781 91.2749C600.096 91.2475 600.342 91.2869 600.535 91.3917C600.725 91.4973 600.821 91.6494 600.82 91.8472C600.82 91.9837 600.778 92.1104 600.682 92.228C600.587 92.3399 600.463 92.4314 600.306 92.5025C600.148 92.5736 599.976 92.6214 599.778 92.639L598.052 92.7946ZM599.797 90.7456L597.237 90.9757L597.224 95.5059L600.009 95.2554C600.412 95.2195 600.755 95.1371 601.05 95.0013C601.345 94.8668 601.572 94.6958 601.73 94.4931C601.887 94.2861 601.964 94.0475 601.965 93.7835C601.965 93.4957 601.849 93.2606 601.618 93.0733C601.441 92.9318 601.21 92.8333 600.924 92.7749C601.107 92.6855 601.26 92.5743 601.38 92.4384C601.565 92.2371 601.655 92.0175 601.655 91.7718C601.656 91.56 601.588 91.3734 601.438 91.2024C601.288 91.037 601.077 90.9089 600.804 90.8209C600.523 90.7371 600.188 90.7104 599.797 90.7456Z" fill="#8D99A3"/>
<path d="M608.066 90.002L607.245 90.0759L607.237 92.9083C607.236 93.1202 607.188 93.3088 607.084 93.4784C606.982 93.6481 606.837 93.7931 606.666 93.912C606.495 94.0317 606.303 94.1239 606.097 94.195C605.885 94.2661 605.673 94.3132 605.466 94.3315C605.255 94.3506 605.049 94.3407 604.845 94.3118C604.632 94.2795 604.441 94.2154 604.27 94.1274C604.099 94.0394 603.956 93.9205 603.853 93.7684C603.752 93.622 603.698 93.4383 603.698 93.2257L603.706 90.3933L602.885 90.4722L602.876 93.3468C602.875 93.7009 602.984 93.9979 603.202 94.2379C603.428 94.4772 603.729 94.6532 604.119 94.7644C604.508 94.8763 604.953 94.9066 605.466 94.8602C605.972 94.8144 606.417 94.7039 606.809 94.5223C607.199 94.3407 607.508 94.1098 607.728 93.8311C607.947 93.5474 608.058 93.23 608.058 92.8808L608.066 90.002Z" fill="#8D99A3"/>
<path d="M613.953 89.4746L613.008 89.5598L611.326 91.7158L609.654 89.8603L608.71 89.9455L610.913 92.395L610.907 94.2779L611.729 94.204L611.734 92.3211L613.953 89.4746Z" fill="#8D99A3"/>
<path d="M429.121 108.898C428.711 108.935 428.333 109.021 428.005 109.146C427.656 109.276 427.381 109.447 427.174 109.654C426.976 109.861 426.871 110.101 426.871 110.37C426.871 110.535 426.912 110.678 426.987 110.794C427.07 110.909 427.178 111.003 427.308 111.081C427.444 111.154 427.594 111.216 427.765 111.257C427.937 111.298 428.108 111.33 428.292 111.352L429.968 111.546C430.084 111.559 430.2 111.577 430.309 111.605C430.419 111.627 430.514 111.662 430.603 111.706C430.685 111.751 430.753 111.806 430.808 111.877C430.856 111.943 430.883 112.026 430.882 112.129C430.882 112.29 430.813 112.438 430.668 112.573C430.531 112.703 430.338 112.811 430.099 112.898C429.862 112.98 429.595 113.037 429.3 113.063C428.841 113.104 428.452 113.059 428.11 112.93C427.775 112.799 427.556 112.597 427.448 112.324L426.612 112.488C426.68 112.761 426.837 112.982 427.083 113.163C427.323 113.345 427.63 113.473 427.998 113.548C428.375 113.623 428.792 113.642 429.257 113.6C429.6 113.569 429.922 113.512 430.215 113.425C430.517 113.336 430.777 113.229 431.003 113.095C431.23 112.956 431.401 112.799 431.532 112.618C431.656 112.437 431.717 112.238 431.717 112.021C431.721 111.803 431.665 111.624 431.549 111.493C431.433 111.357 431.29 111.257 431.112 111.188C430.934 111.114 430.756 111.064 430.565 111.035C430.38 110.999 430.215 110.976 430.072 110.966L428.822 110.828C428.664 110.809 428.5 110.786 428.329 110.749C428.157 110.717 428.02 110.663 427.904 110.589C427.788 110.514 427.727 110.406 427.727 110.269C427.727 110.127 427.797 109.994 427.92 109.879C428.051 109.759 428.222 109.659 428.441 109.578C428.654 109.497 428.901 109.447 429.168 109.423C429.449 109.402 429.702 109.417 429.934 109.467C430.172 109.517 430.364 109.604 430.521 109.722C430.678 109.84 430.78 109.992 430.82 110.172L431.683 109.991C431.609 109.723 431.453 109.501 431.228 109.323C430.996 109.146 430.708 109.021 430.359 108.948C430.011 108.871 429.62 108.854 429.175 108.894C429.158 108.895 429.139 108.897 429.121 108.898Z" fill="#8D99A3"/>
<path d="M436.842 108.295L432.687 108.668L432.675 113.199L436.829 112.826L436.83 112.293L433.489 112.593L433.495 111.078L436.287 110.827L436.289 110.293L433.497 110.545L433.5 109.128L436.841 108.828L436.842 108.295Z" fill="#8D99A3"/>
<path d="M438.841 108.117L438.027 108.19L438.014 112.721L441.875 112.374L441.876 111.841L438.83 112.115L438.841 108.117Z" fill="#8D99A3"/>
<path d="M443.572 107.691L442.757 107.765L442.743 112.296L446.604 111.948L446.605 111.415L443.56 111.689L443.572 107.691Z" fill="#8D99A3"/>
<path d="M859.522 104.712V99.7438L851.746 100.467V99.4705L859.522 98.7469V93.7804L861.083 93.6348V98.6021L868.859 97.8778V98.8754L861.083 99.5997V104.566L859.522 104.712Z" fill="#00FFEF"/>
<path d="M880.576 106.198C879.389 106.324 878.174 106.295 877.004 106.115C875.981 105.952 875.04 105.624 874.271 105.163C873.489 104.682 872.909 104.085 872.578 103.426L874.028 102.958C874.463 103.784 875.376 104.473 876.578 104.884C877.807 105.266 879.199 105.379 880.539 105.205C881.822 105.082 883.04 104.765 884.092 104.279C885.05 103.825 885.808 103.22 886.296 102.525C886.814 101.764 887.071 100.94 887.049 100.11C887.117 99.5413 886.992 98.9699 886.682 98.4348C886.372 97.8997 885.885 97.4136 885.255 97.0098C884.6 96.659 883.827 96.4086 882.996 96.2779C882.167 96.147 881.301 96.1393 880.464 96.2551C879.869 96.3158 879.286 96.4179 878.727 96.5596C878.127 96.7046 877.551 96.8856 877.004 97.1001L876.074 96.3789L887.421 88.3571L887.91 89.0486L873.661 90.3726V89.3757L888.506 87.9941V89.016L878.201 96.2489L878.162 95.6585C879.865 95.1918 881.741 95.0501 883.566 95.2504C885.089 95.4367 886.442 95.9893 887.345 96.794C888.324 97.7245 888.81 98.8308 888.732 99.9506C888.758 100.986 888.407 102.011 887.708 102.945C887.053 103.812 886.073 104.561 884.854 105.126C883.587 105.702 882.118 106.07 880.576 106.198Z" fill="#00FFEF"/>
<path d="M905.799 103.492V99.8567L892.816 101.066V100.067L902.041 86.7358L903.748 86.5801L894.523 99.908L905.795 98.859V93.5116L907.357 93.3659V98.7133L910.557 98.4158V99.4135L907.357 99.711V103.347L905.799 103.492Z" fill="#00FFEF"/>
<path d="M921.344 93.1342C920.206 93.2551 919.038 93.164 917.978 92.8717C916.984 92.5938 916.14 92.135 915.55 91.5524C914.936 90.9338 914.622 90.2126 914.649 89.48C914.65 88.699 914.971 87.9317 915.579 87.2541C916.19 86.5542 917.026 85.9456 918.034 85.469C919.004 84.9994 920.142 84.6933 921.344 84.5788C922.48 84.4576 923.646 84.5493 924.703 84.8429C925.694 85.123 926.537 85.5814 927.13 86.1622C927.75 86.7788 928.068 87.5001 928.041 88.2331C928.045 89.0182 927.731 89.7905 927.13 90.4753C926.531 91.1709 925.702 91.7749 924.703 92.2455C923.717 92.7169 922.563 93.0226 921.344 93.1342ZM916.882 102.461L915.764 101.852L941.508 83.0586L942.625 83.6443L916.882 102.461ZM921.344 92.1365C922.276 92.0493 923.16 91.8136 923.913 91.4511C924.684 91.0879 925.322 90.6208 925.781 90.0828C926.237 89.5622 926.478 88.9755 926.479 88.3788C926.495 87.8213 926.253 87.2732 925.781 86.804C925.327 86.3545 924.677 85.9998 923.913 85.7837C923.106 85.5574 922.213 85.4857 921.344 85.5773C920.414 85.6632 919.534 85.8982 918.784 86.2603C918.015 86.6256 917.377 87.0923 916.916 87.6287C916.453 88.1487 916.209 88.7363 916.208 89.3343C916.192 89.8805 916.428 90.4176 916.886 90.8789C917.343 91.3401 918.004 91.7052 918.784 91.9286C919.588 92.1565 920.478 92.2288 921.344 92.1365ZM937.044 100.941C935.909 101.063 934.742 100.971 933.686 100.677C932.694 100.397 931.85 99.939 931.259 99.3585C930.638 98.7414 930.321 98.0201 930.346 97.2869C930.349 96.5061 930.669 95.7393 931.277 95.0618C931.888 94.3622 932.726 93.7541 933.735 93.2783C934.704 92.8081 935.843 92.5017 937.046 92.3873C938.185 92.2658 939.354 92.3572 940.414 92.6506C941.408 92.928 942.252 93.3867 942.839 93.9691C943.455 94.5879 943.769 95.3094 943.743 96.0423C943.746 96.826 943.435 97.5971 942.839 98.2822C942.245 98.9795 941.417 99.5842 940.414 100.053C939.425 100.523 938.267 100.829 937.046 100.941H937.044ZM937.044 99.9426C937.976 99.8556 938.858 99.6205 939.611 99.2588C940.383 98.8955 941.021 98.4284 941.48 97.8905C941.936 97.3696 942.176 96.7827 942.178 96.1856C942.194 95.6281 941.951 95.08 941.48 94.6109C941.027 94.1612 940.377 93.8065 939.611 93.5906C938.805 93.3643 937.913 93.2926 937.044 93.3842C936.114 93.4699 935.232 93.7052 934.484 94.068C933.714 94.4328 933.076 94.8993 932.613 95.4356C932.151 95.9557 931.908 96.5432 931.907 97.1413C931.89 97.6875 932.126 98.2248 932.584 98.686C933.043 99.1473 933.703 99.5123 934.484 99.7355C935.287 99.9634 936.179 100.035 937.046 99.9426H937.044Z" fill="#00FFEF"/>
<defs>
<radialGradient id="paint0_radial_3411_261519" cx="0" cy="0" r="1" gradientUnits="userSpaceOnUse" gradientTransform="translate(345.704 133.033) rotate(-6.61804) scale(114.566 59.4022)">
<stop stop-color="#2F4050" stop-opacity="0.5"/>
<stop offset="1" stop-color="#2F4050" stop-opacity="0"/>
</radialGradient>
<radialGradient id="paint1_radial_3411_261519" cx="0" cy="0" r="1" gradientUnits="userSpaceOnUse" gradientTransform="translate(238.791 110.445) rotate(-6.61804) scale(111.509 57.8169)">
<stop stop-color="#2F4050" stop-opacity="0.5"/>
<stop offset="1" stop-color="#2F4050" stop-opacity="0"/>
</radialGradient>
<linearGradient id="paint2_linear_3411_261519" x1="174.096" y1="264.374" x2="833.023" y2="72.5631" gradientUnits="userSpaceOnUse">
<stop offset="0.0988607" stop-color="#182129"/>
<stop offset="1" stop-color="#0C4D4D"/>
</linearGradient>
<linearGradient id="paint3_linear_3411_261519" x1="401.356" y1="115.259" x2="452.119" y2="95.3934" gradientUnits="userSpaceOnUse">
<stop stop-color="#182129"/>
<stop offset="1" stop-color="#4D0C0C"/>
</linearGradient>
<linearGradient id="paint4_linear_3411_261519" x1="568.841" y1="95.5528" x2="636.154" y2="78.8932" gradientUnits="userSpaceOnUse">
<stop stop-color="#182129"/>
<stop offset="1" stop-color="#0C4D4D"/>
</linearGradient>
<linearGradient id="paint5_linear_3411_261519" x1="165.957" y1="128.107" x2="217.283" y2="117.987" gradientUnits="userSpaceOnUse">
<stop stop-color="#182129"/>
<stop offset="1" stop-color="#0C4D4D"/>
</linearGradient>
<linearGradient id="paint6_linear_3411_261519" x1="656.716" y1="261.142" x2="1449.8" y2="-470.709" gradientUnits="userSpaceOnUse">
<stop offset="0.0267214" stop-color="#182129"/>
<stop offset="1" stop-color="#0AD2D2"/>
</linearGradient>
<linearGradient id="paint7_linear_3411_261519" x1="825.019" y1="30.2975" x2="832.946" y2="30.2975" gradientUnits="userSpaceOnUse">
<stop stop-color="#0C4D4D"/>
<stop offset="1" stop-color="#2F4050" stop-opacity="0.5"/>
</linearGradient>
<linearGradient id="paint8_linear_3411_261519" x1="746.338" y1="46.9304" x2="754.265" y2="46.9304" gradientUnits="userSpaceOnUse">
<stop stop-color="#0C4D4D"/>
<stop offset="1" stop-color="#2F4050" stop-opacity="0.5"/>
</linearGradient>
<linearGradient id="paint9_linear_3411_261519" x1="764.587" y1="63.6179" x2="772.515" y2="63.6179" gradientUnits="userSpaceOnUse">
<stop stop-color="#0C4D4D"/>
<stop offset="1" stop-color="#2F4050" stop-opacity="0.5"/>
</linearGradient>
</defs>
</svg>
