<svg width="44" height="48" viewBox="0 0 44 48" fill="none" xmlns="http://www.w3.org/2000/svg">
<g id="Frame 1000004806">
<path id="Vector 649" d="M16.152 10.2289V18.1463L24.018 10.1881C24.7695 9.42785 25.7939 9 26.8629 9H32.8574C33.4576 9 34.0336 9.23628 34.4609 9.65772C34.9114 10.1021 34.9147 10.828 34.4681 11.2764L21.8479 23.9477L34.4538 36.6537C34.9094 37.113 34.908 37.8542 34.4506 38.3117C34.0099 38.7524 33.4123 39 32.7891 39H26.9285C25.8517 39 24.8203 38.5658 24.0677 37.7957L16.2043 29.7491L21.8479 23.9477L16.152 18.1463L10.4038 23.8955L16.152 29.7491V37.4509C16.152 38.3065 15.4584 39 14.6029 39C14.1897 39 13.7936 38.8349 13.5027 38.5414L9.15902 34.1589C8.41656 33.4098 8 32.3978 8 31.3431V27.9563C8 26.8956 8.42134 25.8782 9.17135 25.1281L10.4038 23.8955L8.58567 22.0771C8.21067 21.702 8 21.1933 8 20.663V16.5626C8 15.5018 8.42134 14.4845 9.17134 13.7344L13.1851 9.72C13.646 9.25899 14.2712 9 14.9231 9C15.6018 9 16.152 9.55019 16.152 10.2289Z" fill="url(#paint0_linear_10857_7149)"/>
</g>
<defs>
<linearGradient id="paint0_linear_10857_7149" x1="21.6389" y1="9" x2="21.6389" y2="39" gradientUnits="userSpaceOnUse">
<stop stop-color="#6DD5FA"/>
<stop offset="1" stop-color="#2980B9"/>
</linearGradient>
</defs>
</svg>
