<svg width="24" height="24" viewBox="0 0 24 24" fill="none" xmlns="http://www.w3.org/2000/svg">
<g id="icon/square/32x32/Polygon (MATIC)">
<rect width="24" height="24" rx="6" fill="#8247E5"/>
<path id="Vector" d="M12.3535 17.1642C12.6595 16.9857 12.8573 16.6432 12.8808 16.2508L12.8554 13.3945L12.8911 11.4869L12.8437 8.66858C12.8453 8.31428 13.0431 7.97177 13.3711 7.75519L15.3054 6.69C15.6114 6.51149 16.0258 6.49698 16.3683 6.69473L18.2712 7.79336C18.5756 7.96914 18.7922 8.29716 18.8067 8.71148L18.8133 10.8973C18.8118 11.2516 18.614 11.5941 18.286 11.8107L16.3517 12.8759C16.0456 13.0544 15.6313 13.0689 15.2888 12.8711L14.0329 12.146L14.0352 14.0756L15.3292 14.8227C15.6336 14.9985 16.026 15.022 16.392 14.8274L19.9386 12.8155C20.2446 12.637 20.4424 12.2945 20.4659 11.9021L20.4409 7.72671C20.4644 7.33436 20.2479 7.00635 19.9434 6.83057L16.366 4.76514C16.0615 4.58936 15.6692 4.56581 15.3031 4.76041L11.7346 6.81037C11.4286 6.98888 11.2308 7.3314 11.2073 7.72376L11.2166 10.5201L11.2189 12.4496L11.2283 15.246C11.2267 15.6002 11.0289 15.9428 10.7009 16.1593L8.80466 17.2465C8.49862 17.425 8.08429 17.4395 7.74177 17.2418L5.83889 16.1431C5.53443 15.9674 5.31785 15.6393 5.30335 15.225L5.27476 13.0773C5.27633 12.723 5.47409 12.3805 5.8021 12.1639L7.69837 11.0767C8.00441 10.8982 8.41873 10.8837 8.76125 11.0815L9.9791 11.7846L9.97679 9.85499L8.72088 9.12989C8.41642 8.95411 8.02407 8.93056 7.658 9.12516L4.0895 11.1751C3.78346 11.3536 3.58571 11.6962 3.56216 12.0885L3.57109 16.2039C3.56951 16.5582 3.76411 16.9243 4.10663 17.122L7.72211 19.2094C8.02657 19.3852 8.41892 19.4088 8.78499 19.2142L12.3535 17.1642Z" fill="white"/>
</g>
</svg>
